# xmcd
#
# Track frame offsets:
#	150
#	19460
#	38777
#	61250
#	103275
#	133257
#
# Disc length: 2188 seconds
#
# Revision: 1
# Processed by: cddbd v1.5.2PL0 Copyright (c) Steve Scherf et al.
# Submitted via: audiograbber 1.83.01
#
DISCID=55088a06
DTITLE=Mary J. Blige - Love Is All We Need [CDM)
DYEAR=1997
DGENRE=R&B
TTITLE0=Love Is All We Need (Radio Edit)
TTITLE1=Love Is All We Need (Radio Edit No Rap)
TTITLE2=Love Is All We Need (instrumental)
TTITLE3=Love Is All We Need (Vocal)
TTITLE4=Love Is All We Need (Club Mix)
TTITLE5=Love Is All We Need (Hard On Dub)
EXTD=
EXTT0=
EXTT1=
EXTT2=
EXTT3=
EXTT4=
EXTT5=
PLAYORDER=
